<mxfile host="app.diagrams.net" modified="2022-10-29T00:38:22.699Z" agent="5.0 (Windows NT 10.0; Win64; x64) AppleWebKit/537.36 (KHTML, like Gecko) Chrome/107.0.0.0 Safari/537.36" etag="yJlaaSanCmh7RvXxU9dL" version="20.5.1" type="github">
  <diagram id="LNyXkqCAXkjSHS3rlu4H" name="Страница 1">
    <mxGraphModel dx="830" dy="438" grid="1" gridSize="10" guides="1" tooltips="1" connect="1" arrows="1" fold="1" page="1" pageScale="1" pageWidth="827" pageHeight="1169" math="0" shadow="0">
      <root>
        <mxCell id="0" />
        <mxCell id="1" parent="0" />
        <mxCell id="g-4HUA7l-jl2k6W9smbb-1" value="User" style="shape=umlActor;verticalLabelPosition=bottom;verticalAlign=top;html=1;outlineConnect=0;" vertex="1" parent="1">
          <mxGeometry x="40" y="340" width="30" height="60" as="geometry" />
        </mxCell>
        <mxCell id="g-4HUA7l-jl2k6W9smbb-2" value="Administrator" style="shape=umlActor;verticalLabelPosition=bottom;verticalAlign=top;html=1;outlineConnect=0;" vertex="1" parent="1">
          <mxGeometry x="40" y="180" width="30" height="60" as="geometry" />
        </mxCell>
        <mxCell id="g-4HUA7l-jl2k6W9smbb-5" value="" style="rounded=0;whiteSpace=wrap;html=1;" vertex="1" parent="1">
          <mxGeometry x="570" y="160" width="100" height="300" as="geometry" />
        </mxCell>
        <mxCell id="g-4HUA7l-jl2k6W9smbb-6" value="" style="rounded=1;whiteSpace=wrap;html=1;" vertex="1" parent="1">
          <mxGeometry x="120" y="140" width="420" height="340" as="geometry" />
        </mxCell>
        <mxCell id="g-4HUA7l-jl2k6W9smbb-8" value="Add Product in List" style="ellipse;whiteSpace=wrap;html=1;" vertex="1" parent="1">
          <mxGeometry x="285" y="250" width="90" height="60" as="geometry" />
        </mxCell>
        <mxCell id="g-4HUA7l-jl2k6W9smbb-9" value="Add Fridges" style="ellipse;whiteSpace=wrap;html=1;" vertex="1" parent="1">
          <mxGeometry x="285" y="330" width="90" height="60" as="geometry" />
        </mxCell>
        <mxCell id="g-4HUA7l-jl2k6W9smbb-10" value="Add products from list in fridge" style="ellipse;whiteSpace=wrap;html=1;" vertex="1" parent="1">
          <mxGeometry x="285" y="410" width="90" height="60" as="geometry" />
        </mxCell>
        <mxCell id="g-4HUA7l-jl2k6W9smbb-12" value="Add Fridge Type" style="ellipse;whiteSpace=wrap;html=1;" vertex="1" parent="1">
          <mxGeometry x="285" y="170" width="90" height="60" as="geometry" />
        </mxCell>
        <mxCell id="g-4HUA7l-jl2k6W9smbb-13" value="Roles" style="text;html=1;strokeColor=none;fillColor=none;align=center;verticalAlign=middle;whiteSpace=wrap;rounded=0;" vertex="1" parent="1">
          <mxGeometry x="25" y="140" width="60" height="30" as="geometry" />
        </mxCell>
        <mxCell id="g-4HUA7l-jl2k6W9smbb-14" value="Fridges&amp;nbsp;" style="text;html=1;strokeColor=none;fillColor=none;align=center;verticalAlign=middle;whiteSpace=wrap;rounded=0;" vertex="1" parent="1">
          <mxGeometry x="300" y="140" width="60" height="30" as="geometry" />
        </mxCell>
        <mxCell id="g-4HUA7l-jl2k6W9smbb-15" value="Authenticate&lt;br&gt;&amp;amp;&lt;br&gt;authorize with jwt&lt;br&gt;&amp;amp; refresh tokens" style="ellipse;whiteSpace=wrap;html=1;aspect=fixed;" vertex="1" parent="1">
          <mxGeometry x="130" y="245" width="110" height="110" as="geometry" />
        </mxCell>
        <mxCell id="g-4HUA7l-jl2k6W9smbb-16" value="DB" style="text;html=1;strokeColor=none;fillColor=none;align=center;verticalAlign=middle;whiteSpace=wrap;rounded=0;" vertex="1" parent="1">
          <mxGeometry x="590" y="165" width="60" height="30" as="geometry" />
        </mxCell>
        <mxCell id="g-4HUA7l-jl2k6W9smbb-17" value="CRUD user`s refresh-tokens" style="ellipse;whiteSpace=wrap;html=1;" vertex="1" parent="1">
          <mxGeometry x="575" y="195" width="90" height="60" as="geometry" />
        </mxCell>
        <mxCell id="g-4HUA7l-jl2k6W9smbb-18" value="CRUD data about fridges types/products" style="ellipse;whiteSpace=wrap;html=1;" vertex="1" parent="1">
          <mxGeometry x="575" y="280" width="90" height="60" as="geometry" />
        </mxCell>
        <mxCell id="g-4HUA7l-jl2k6W9smbb-19" value="CRUD data about user`s fridges&amp;amp;products in them" style="ellipse;whiteSpace=wrap;html=1;" vertex="1" parent="1">
          <mxGeometry x="575" y="370" width="90" height="60" as="geometry" />
        </mxCell>
        <mxCell id="g-4HUA7l-jl2k6W9smbb-22" value="" style="endArrow=open;endFill=1;endSize=12;html=1;rounded=0;" edge="1" parent="1" target="g-4HUA7l-jl2k6W9smbb-8">
          <mxGeometry width="160" relative="1" as="geometry">
            <mxPoint x="50" y="200" as="sourcePoint" />
            <mxPoint x="210" y="200" as="targetPoint" />
          </mxGeometry>
        </mxCell>
        <mxCell id="g-4HUA7l-jl2k6W9smbb-23" value="" style="endArrow=open;endFill=1;endSize=12;html=1;rounded=0;" edge="1" parent="1" target="g-4HUA7l-jl2k6W9smbb-12">
          <mxGeometry width="160" relative="1" as="geometry">
            <mxPoint x="55" y="200" as="sourcePoint" />
            <mxPoint x="310" y="190" as="targetPoint" />
          </mxGeometry>
        </mxCell>
        <mxCell id="g-4HUA7l-jl2k6W9smbb-26" value="" style="endArrow=open;endFill=1;endSize=12;html=1;rounded=0;exitX=0.5;exitY=0.5;exitDx=0;exitDy=0;exitPerimeter=0;" edge="1" parent="1" source="g-4HUA7l-jl2k6W9smbb-2" target="g-4HUA7l-jl2k6W9smbb-15">
          <mxGeometry width="160" relative="1" as="geometry">
            <mxPoint x="70" y="220" as="sourcePoint" />
            <mxPoint x="230" y="220" as="targetPoint" />
          </mxGeometry>
        </mxCell>
        <mxCell id="g-4HUA7l-jl2k6W9smbb-27" value="" style="endArrow=open;endFill=1;endSize=12;html=1;rounded=0;exitX=0.5;exitY=0.5;exitDx=0;exitDy=0;exitPerimeter=0;entryX=0.081;entryY=0.745;entryDx=0;entryDy=0;entryPerimeter=0;" edge="1" parent="1" source="g-4HUA7l-jl2k6W9smbb-1" target="g-4HUA7l-jl2k6W9smbb-15">
          <mxGeometry width="160" relative="1" as="geometry">
            <mxPoint x="290" y="360" as="sourcePoint" />
            <mxPoint x="450" y="360" as="targetPoint" />
          </mxGeometry>
        </mxCell>
        <mxCell id="g-4HUA7l-jl2k6W9smbb-28" value="" style="endArrow=open;endFill=1;endSize=12;html=1;rounded=0;exitX=0.5;exitY=0.5;exitDx=0;exitDy=0;exitPerimeter=0;" edge="1" parent="1" source="g-4HUA7l-jl2k6W9smbb-1" target="g-4HUA7l-jl2k6W9smbb-9">
          <mxGeometry width="160" relative="1" as="geometry">
            <mxPoint x="300" y="370" as="sourcePoint" />
            <mxPoint x="460" y="370" as="targetPoint" />
          </mxGeometry>
        </mxCell>
        <mxCell id="g-4HUA7l-jl2k6W9smbb-29" value="" style="endArrow=open;endFill=1;endSize=12;html=1;rounded=0;entryX=0.015;entryY=0.414;entryDx=0;entryDy=0;entryPerimeter=0;exitX=0.5;exitY=0.5;exitDx=0;exitDy=0;exitPerimeter=0;" edge="1" parent="1" source="g-4HUA7l-jl2k6W9smbb-1" target="g-4HUA7l-jl2k6W9smbb-10">
          <mxGeometry width="160" relative="1" as="geometry">
            <mxPoint x="310" y="380" as="sourcePoint" />
            <mxPoint x="370" y="380" as="targetPoint" />
          </mxGeometry>
        </mxCell>
        <mxCell id="g-4HUA7l-jl2k6W9smbb-30" value="" style="endArrow=open;endFill=1;endSize=12;html=1;rounded=0;exitX=0.968;exitY=0.285;exitDx=0;exitDy=0;exitPerimeter=0;entryX=0.079;entryY=0.786;entryDx=0;entryDy=0;entryPerimeter=0;" edge="1" parent="1" source="g-4HUA7l-jl2k6W9smbb-15" target="g-4HUA7l-jl2k6W9smbb-17">
          <mxGeometry width="160" relative="1" as="geometry">
            <mxPoint x="320" y="390" as="sourcePoint" />
            <mxPoint x="480" y="390" as="targetPoint" />
            <Array as="points">
              <mxPoint x="260" y="240" />
            </Array>
          </mxGeometry>
        </mxCell>
        <mxCell id="g-4HUA7l-jl2k6W9smbb-31" value="Include" style="endArrow=block;endSize=16;endFill=0;html=1;rounded=0;exitX=0.5;exitY=1;exitDx=0;exitDy=0;entryX=0.085;entryY=0.25;entryDx=0;entryDy=0;entryPerimeter=0;" edge="1" parent="1" source="g-4HUA7l-jl2k6W9smbb-12" target="g-4HUA7l-jl2k6W9smbb-18">
          <mxGeometry x="0.2835" y="-9" width="160" relative="1" as="geometry">
            <mxPoint x="280" y="290" as="sourcePoint" />
            <mxPoint x="440" y="290" as="targetPoint" />
            <mxPoint as="offset" />
          </mxGeometry>
        </mxCell>
        <mxCell id="g-4HUA7l-jl2k6W9smbb-32" value="" style="endArrow=open;endFill=1;endSize=12;html=1;rounded=0;exitX=0.984;exitY=0.599;exitDx=0;exitDy=0;exitPerimeter=0;" edge="1" parent="1" source="g-4HUA7l-jl2k6W9smbb-8">
          <mxGeometry width="160" relative="1" as="geometry">
            <mxPoint x="330" y="400" as="sourcePoint" />
            <mxPoint x="580" y="290" as="targetPoint" />
          </mxGeometry>
        </mxCell>
        <mxCell id="g-4HUA7l-jl2k6W9smbb-33" value="" style="endArrow=open;endFill=1;endSize=12;html=1;rounded=0;exitX=1;exitY=0.5;exitDx=0;exitDy=0;entryX=0;entryY=0.5;entryDx=0;entryDy=0;" edge="1" parent="1" source="g-4HUA7l-jl2k6W9smbb-9" target="g-4HUA7l-jl2k6W9smbb-19">
          <mxGeometry width="160" relative="1" as="geometry">
            <mxPoint x="340" y="410" as="sourcePoint" />
            <mxPoint x="500" y="410" as="targetPoint" />
          </mxGeometry>
        </mxCell>
        <mxCell id="g-4HUA7l-jl2k6W9smbb-34" value="" style="endArrow=open;endFill=1;endSize=12;html=1;rounded=0;entryX=0;entryY=0.5;entryDx=0;entryDy=0;exitX=1;exitY=0.5;exitDx=0;exitDy=0;" edge="1" parent="1" source="g-4HUA7l-jl2k6W9smbb-10" target="g-4HUA7l-jl2k6W9smbb-19">
          <mxGeometry width="160" relative="1" as="geometry">
            <mxPoint x="350" y="420" as="sourcePoint" />
            <mxPoint x="510" y="420" as="targetPoint" />
          </mxGeometry>
        </mxCell>
      </root>
    </mxGraphModel>
  </diagram>
</mxfile>
